<?xml version="1.0" encoding="utf-8"?>
<!-- Generator: Adobe Illustrator 23.1.0, SVG Export Plug-In . SVG Version: 6.00 Build 0)  -->
<svg version="1.1" id="Calque_1" xmlns="http://www.w3.org/2000/svg" xmlns:xlink="http://www.w3.org/1999/xlink" x="0px" y="0px"
	 viewBox="0 0 562.4 165.9" style="enable-background:new 0 0 562.4 165.9;" xml:space="preserve">
<style type="text/css">
	.st0{fill-rule:evenodd;clip-rule:evenodd;fill:#0079BB;}
</style>
<path class="st0" d="M312.6,83.4c0,1.1-0.1,2.2-0.4,3.1c-1.2,4-5.3,7.4-10.5,7.4c-4.3,0-7.8-2.5-7.8-7.6c0-7.9,8.7-10.1,18.7-10.1
	L312.6,83.4L312.6,83.4z M328.1,69.6c0-13.1-5.6-24.6-24.5-24.6c-9.7,0-17.4,2.7-21.6,5.1l3.1,10.5c3.8-2.4,10-4.4,15.7-4.4
	c9.6,0,11.1,5.4,11.1,8.9V66c-20.9,0-34,7.2-34,21.9c0,9,6.7,17.4,18.4,17.4c7.2,0,13.2-2.9,16.8-7.4h0.4c0,0,2.4,10,15.5,6.2
	c-0.7-4.2-0.9-8.6-0.9-13.9V69.6L328.1,69.6z"/>
<path class="st0" d="M3.1,27.3c0,0,13.6,55.9,15.8,64.9c2.5,10.6,7.1,14.5,20.3,11.9l8.5-34.6c2.2-8.6,3.6-14.7,5-23.5h0.2
	c1,8.8,2.4,14.9,4.1,23.5c0,0,3.5,15.7,5.2,24c1.8,8.3,6.7,13.5,19.7,10.6l20.3-76.8H85.9L79,60.4c-1.9,9.7-3.6,17.2-4.9,26.1h-0.2
	c-1.2-8.8-2.7-16-4.6-25.4l-7.2-33.8H45l-7.7,33c-2.2,10-4.2,18.1-5.5,26.7h-0.2c-1.3-8-3.1-18.2-5-27.9c0,0-4.6-23.6-6.2-31.7
	L3.1,27.3L3.1,27.3z"/>
<path class="st0" d="M133.2,83.4c0,1.1-0.1,2.2-0.4,3.1c-1.2,4-5.3,7.4-10.5,7.4c-4.3,0-7.7-2.5-7.7-7.6c0-7.9,8.7-10.1,18.7-10.1
	v7.2H133.2z M148.8,69.6c0-13.1-5.6-24.6-24.5-24.6c-9.7,0-17.4,2.7-21.6,5.1l3.1,10.5c3.8-2.4,9.9-4.4,15.7-4.4
	c9.6,0,11.1,5.4,11.1,8.9V66c-20.9,0-34,7.2-34,21.9c0,9,6.7,17.4,18.4,17.4c7.2,0,13.2-2.9,16.8-7.4h0.4c0,0,2.4,10,15.5,6.2
	c-0.7-4.2-0.9-8.6-0.9-13.9V69.6L148.8,69.6z"/>
<polygon class="st0" points="174.8,87.7 174.8,27.2 159.2,27.2 159.2,104 174.8,104 "/>
<path class="st0" d="M378.8,27.3V84c0,7.8,1.5,13.3,4.6,16.6c2.7,2.9,7.3,4.8,12.7,4.8c4.6,0,9.2-0.9,11.3-1.7l-0.2-12.2
	c-1.6,0.4-3.4,0.7-5.9,0.7c-5.3,0-7.1-3.4-7.1-10.4V60.1h13.6V45.4h-13.6V27.3H378.8L378.8,27.3z"/>
<path class="st0" d="M338.5,46.4V104h16.1V74.5c0-1.6,0.1-3,0.3-4.3c1.2-6.2,5.9-10.1,12.7-10.1c1.9,0,3.2,0.2,4.6,0.4V45.4
	c-1.2-0.3-2-0.4-3.5-0.4c-6,0-12.8,3.9-15.7,12.2h-0.4V46.4H338.5L338.5,46.4z"/>
<path class="st0" d="M185.7,46.4V104h15.7V70.2c0-1.6,0.2-3.3,0.7-4.7c1.3-3.4,4.5-7.4,9.5-7.4c6.3,0,9.3,5.4,9.3,13.1V104h15.7
	V69.8c0-1.5,0.2-3.3,0.7-4.7c1.3-3.9,4.7-7,9.4-7c6.4,0,9.5,5.3,9.5,14.3V104h15.7V70c0-17.9-9.1-25-19.4-25
	c-4.6,0-8.1,1.1-11.4,3.1c-2.7,1.7-5.2,4.1-7.3,7.2h-0.2c-2.6-6.2-8.4-10.3-16-10.3c-9.7,0-14.1,4.9-16.8,9.1h-0.2v-7.8h-14.9V46.4z
	"/>
<path class="st0" d="M495.2,47.2c2.8,0,5.2-1.5,5.5-3.4l2.8-31.7c0-3.1-3.7-5.7-8.3-5.7c-4.6,0-8.3,2.6-8.3,5.7l2.8,31.7
	C490,45.7,492.4,47.2,495.2,47.2L495.2,47.2L495.2,47.2z"/>
<path class="st0" d="M478,57.1c1.4-2.5,1.3-5.2-0.2-6.4l-26.1-18.3c-2.7-1.6-6.8,0.3-9.1,4.3c-2.3,4-1.9,8.5,0.8,10l28.9,13.4
	C474.2,60.8,476.6,59.5,478,57.1L478,57.1L478,57.1z"/>
<path class="st0" d="M512.3,57.1c1.4,2.5,3.9,3.7,5.7,3.1l28.9-13.4c2.7-1.6,3.1-6,0.8-10s-6.4-5.9-9.1-4.3l-26.1,18.3
	C511,51.9,510.9,54.6,512.3,57.1L512.3,57.1L512.3,57.1z"/>
<path class="st0" d="M495.2,86.8c2.8,0,5.2,1.5,5.5,3.4l2.8,31.7c0,3.1-3.7,5.7-8.3,5.7c-4.6,0-8.3-2.6-8.3-5.7l2.8-31.7
	C490,88.3,492.4,86.8,495.2,86.8L495.2,86.8L495.2,86.8z"/>
<path class="st0" d="M512.3,76.9c1.4-2.5,3.9-3.7,5.7-3.1l28.9,13.4c2.7,1.6,3.1,6,0.8,10s-6.4,5.9-9.1,4.3l-26.1-18.3
	C511,82.1,510.9,79.4,512.3,76.9L512.3,76.9L512.3,76.9z"/>
<path class="st0" d="M478,76.9c1.4,2.5,1.3,5.2-0.2,6.4l-26.1,18.3c-2.7,1.6-6.8-0.3-9.1-4.3c-2.3-4-1.9-8.5,0.8-10l28.9-13.4
	C474.2,73.2,476.6,74.4,478,76.9L478,76.9L478,76.9z"/>
<path class="st0" d="M549.5,106.8c0.3,0.2,0.7,0.3,1.2,0.3c0.6,0,0.9-0.3,0.9-0.7c0-0.4-0.3-0.6-0.9-0.8c-0.8-0.3-1.3-0.7-1.3-1.4
	c0-0.8,0.7-1.4,1.7-1.4c0.5,0,0.9,0.1,1.2,0.3l-0.2,0.7c-0.2-0.1-0.5-0.2-1-0.2c-0.6,0-0.8,0.3-0.8,0.6c0,0.4,0.3,0.6,0.9,0.8
	c0.8,0.3,1.3,0.8,1.3,1.5c0,0.8-0.6,1.5-1.9,1.5c-0.5,0-1.1-0.1-1.3-0.3L549.5,106.8L549.5,106.8z"/>
<path class="st0" d="M557.5,105.8c0-0.6-0.1-1.4-0.1-2.1l0,0c-0.2,0.6-0.4,1.3-0.6,1.9l-0.7,2.1h-0.7l-0.7-2.1
	c-0.2-0.6-0.4-1.3-0.5-1.9l0,0c0,0.6-0.1,1.4-0.1,2.1l-0.1,2h-0.8l0.3-4.9h1.2l0.6,2c0.2,0.6,0.3,1.2,0.5,1.7l0,0
	c0.1-0.5,0.3-1.1,0.5-1.7l0.7-2h1.2l0.3,4.9h-0.9L557.5,105.8L557.5,105.8z"/>
</svg>
