<?xml version="1.0" encoding="utf-8"?>
<!-- Generator: Adobe Illustrator 26.0.0, SVG Export Plug-In . SVG Version: 6.00 Build 0)  -->
<svg version="1.1" id="Capa_1" xmlns="http://www.w3.org/2000/svg" xmlns:xlink="http://www.w3.org/1999/xlink" x="0px" y="0px"
	 viewBox="0 0 668 572" style="enable-background:new 0 0 668 572;" xml:space="preserve">
<style type="text/css">
	.st0{fill:#FFC220;}
</style>
<g>
	<path class="st0" d="M389.29,332.26c0.07-7.43,2.99-13.62,8.33-18.66c2.9-2.74,6.39-4.5,10.4-4.92c2.5-0.26,4.71,0.93,6.93,1.93
		c5.67,2.55,11.25,5.28,16.93,7.81c5.91,2.63,11.68,5.58,17.54,8.33c7.49,3.52,15.02,6.96,22.52,10.47
		c5.58,2.61,11.13,5.29,16.71,7.89c3.63,1.69,7.37,3.15,10.93,4.98c4.12,2.12,8.59,3.56,12.44,6.19c2.99,2.03,4.83,5,5.78,8.41
		c2.27,8.16,0.64,15.87-3.01,23.28c-3.07,6.22-7.48,11.31-13.31,15.07c-4.85,3.13-10.14,4.7-15.95,3.49
		c-2.42-0.5-4.35-2.08-6.33-3.44c-4-2.74-7.93-5.59-11.9-8.38c-4.74-3.33-9.48-6.65-14.22-9.97c-5.31-3.72-10.62-7.45-15.93-11.16
		c-6.56-4.58-13.12-9.16-19.68-13.74c-7.47-5.22-14.89-10.51-22.41-15.64C390.77,341.28,389.23,337.21,389.29,332.26z"/>
	<path class="st0" d="M149.11,369.8c-0.1-3.35,1.04-8.18,4.64-12.19c1.68-1.87,3.72-3.15,6.07-4.12c3.7-1.52,7.28-3.34,10.93-4.99
		c5.57-2.51,11.07-5.17,16.68-7.59c5.76-2.49,11.36-5.35,17.06-7.99c5.16-2.39,10.36-4.69,15.53-7.06c6.8-3.12,13.58-6.27,20.38-9.4
		c5.08-2.33,10.13-4.71,15.25-6.94c4.05-1.77,7.9-0.72,11.43,1.48c7.11,4.44,10.96,11.12,11.79,19.29
		c0.53,5.23-0.92,9.91-5.81,13.16c-8.16,5.43-16.13,11.17-24.16,16.8c-7.72,5.41-15.42,10.85-23.15,16.25
		c-7.17,5.01-14.37,9.98-21.53,15c-5.56,3.9-11.1,7.85-16.63,11.79c-5.63,4.01-11.57,3.78-17.58,1.11
		c-7.23-3.21-12.26-8.77-16.1-15.53C150.88,383.55,149.15,377.87,149.11,369.8z"/>
	<path class="st0" d="M149.12,199.89c0.18-6.98,2.33-13.29,6.12-19.16c3.23-5,7.12-9.27,12.36-12.14
		c5.69-3.11,11.64-4.65,17.79-1.42c2.69,1.42,5.1,3.38,7.6,5.14c4.71,3.3,9.39,6.62,14.08,9.94c6.41,4.53,12.78,9.11,19.21,13.61
		c6.26,4.39,12.58,8.67,18.84,13.06c6.04,4.23,12.02,8.56,18.05,12.81c3.61,2.55,7.31,4.98,10.89,7.57c2.7,1.95,4.1,4.72,4.6,8
		c0.96,6.33-0.95,11.97-4.47,17.01c-3.48,4.99-8.08,8.68-14.52,9.08c-1.95,0.12-3.86-0.47-5.65-1.33c-6.04-2.9-12.09-5.77-18.2-8.52
		c-5.57-2.51-11.04-5.23-16.57-7.82c-7.26-3.39-14.54-6.74-21.8-10.12c-5.49-2.56-10.96-5.15-16.45-7.72
		c-7.63-3.57-15.27-7.11-22.9-10.69c-5.25-2.47-7.67-6.93-8.66-12.4C149.16,203.16,149.16,201.54,149.12,199.89z"/>
	<path class="st0" d="M389.39,240.18c-0.45-5.65,2.1-9.44,6.65-12.44c6.51-4.3,12.76-8.98,19.15-13.46
		c5.17-3.62,10.4-7.17,15.58-10.79c4.36-3.06,8.68-6.19,13.02-9.26c4.3-3.04,8.62-6.05,12.91-9.1c4.3-3.04,8.5-6.22,12.88-9.14
		c4.16-2.77,8.07-5.93,12.34-8.51c5.01-3.04,10.34-2.53,15.52-0.26c9.03,3.95,14.76,11.09,18.6,19.86
		c2.14,4.88,3.21,10.08,2.73,15.44c-0.51,5.7-2.56,10.72-7.58,13.93c-2.15,1.37-4.62,2.25-6.95,3.34c-4.53,2.14-9.05,4.31-13.6,6.42
		c-5.41,2.5-10.87,4.9-16.27,7.42c-6.54,3.05-13.04,6.22-19.58,9.28c-4.39,2.06-8.84,3.96-13.21,6.06
		c-3.56,1.71-7.13,3.41-10.73,5.05c-4.79,2.18-9.53,4.48-14.33,6.66c-1.3,0.59-2.51,1.32-3.85,1.84c-3.34,1.31-6.59,1-9.69-0.46
		c-6.12-2.87-9.99-7.83-12.29-14.06C389.78,245.46,389.05,242.85,389.39,240.18z"/>
	<path class="st0" d="M334.54,218.3c-6.58,0.1-11.89-1.5-16.26-5.69c-1.94-1.85-3.1-4.12-3.34-6.8c-0.37-4.09-0.64-8.2-1.01-12.29
		c-0.47-5.26-1.01-10.51-1.5-15.76c-0.26-2.78-0.45-5.57-0.7-8.36c-0.41-4.68-0.85-9.36-1.24-14.04
		c-0.46-5.47-0.85-10.95-1.33-16.42c-0.46-5.26-1.01-10.51-1.48-15.76c-0.37-4.15-0.73-8.31-1.03-12.47
		c-0.32-4.31-0.95-8.59-0.99-12.93c-0.03-3.95,1.57-7.21,4.11-9.99c4.89-5.36,11.25-7.86,18.28-8.86c5.76-0.82,11.47-0.5,17.09,1.05
		c4.58,1.26,8.74,3.49,12.06,6.76c3.77,3.72,5.84,8.31,4.9,13.92c-0.5,2.96-0.48,5.99-0.75,8.99c-0.39,4.3-0.85,8.6-1.24,12.9
		c-0.26,2.89-0.43,5.79-0.68,8.68c-0.37,4.31-0.79,8.62-1.17,12.93c-0.37,4.2-0.7,8.41-1.06,12.61c-0.36,4.26-0.74,8.52-1.1,12.78
		c-0.37,4.36-0.73,8.72-1.12,13.08c-0.38,4.15-0.8,8.3-1.19,12.45c-0.36,3.84-0.69,7.67-1.03,11.51c-0.36,3.96-2.82,6.58-5.98,8.43
		C342.85,217.33,338.55,218.63,334.54,218.3z"/>
	<path class="st0" d="M333.08,493.49c-6.29,0.18-13.06-1.47-19.15-5.58c-6.28-4.24-9.19-9.95-8.06-17.67
		c0.62-4.27,0.73-8.61,1.11-12.92c0.48-5.46,1-10.92,1.49-16.38c0.24-2.68,0.46-5.36,0.7-8.04c0.51-5.73,1.04-11.46,1.53-17.19
		c0.37-4.36,0.67-8.73,1.05-13.09c0.35-4.05,0.8-8.09,1.16-12.13c0.38-4.26,0.68-8.52,1.06-12.78c0.39-4.3,0.65-8.62,1.32-12.88
		c0.65-4.17,3.81-6.54,7.21-8.45c4.44-2.5,9.35-3,14.3-2.52c5.55,0.53,10.57,2.42,14.21,6.97c1.53,1.91,1.83,4.25,2.05,6.55
		c0.69,7.14,1.31,14.29,1.91,21.45c0.57,6.68,1.05,13.36,1.63,20.04c0.46,5.36,1.05,10.7,1.52,16.06
		c0.49,5.52,0.88,11.04,1.36,16.56c0.47,5.36,1.01,10.71,1.49,16.07c0.37,4.15,0.68,8.3,1.03,12.46c0.09,1.11,0.28,2.21,0.3,3.31
		c0.11,6.14-2.89,10.62-7.66,14.11C348.5,491.9,341.54,493.58,333.08,493.49z"/>
</g>
</svg>
