<?xml version="1.0" encoding="utf-8"?>
<!-- Generator: Adobe Illustrator 26.0.0, SVG Export Plug-In . SVG Version: 6.00 Build 0)  -->
<svg version="1.1" id="Capa_1" xmlns="http://www.w3.org/2000/svg" xmlns:xlink="http://www.w3.org/1999/xlink" x="0px" y="0px"
	 viewBox="0 0 1920 710" style="enable-background:new 0 0 1920 710;" xml:space="preserve">
<style type="text/css">
	.st0{fill:#F3F3F3;}
	.st1{font-family:'MyriadPro-Regular';}
	.st2{font-size:12px;}
</style>
<path d="M1724.85,451.98c-1.07,11.74-6.24,21.64-17.05,28.09c-6.24,3.72-12.28,3.55-18.48-0.84
	c-25.06-17.75-50.22-35.34-75.46-52.82c-4.68-3.24-6.58-7.3-6.01-12.74c0.73-6.98,4.07-12.51,9.75-16.52
	c4.1-2.89,8.51-3.16,13.17-0.95c12.73,6.04,25.52,11.95,38.3,17.9c15.2,7.08,30.33,14.31,45.65,21.14
	C1721.95,438.48,1724.46,444.12,1724.85,451.98z"/>
<path d="M1607.78,332.96c-0.38-4.77,1.57-8.25,5.44-10.95c25.61-17.88,51.2-35.8,76.75-53.77c4.44-3.12,9-3.89,14.16-2.12
	c13.3,4.55,23.27,22.51,19.88,35.89c-1.17,4.62-3.71,7.96-8.09,10c-28.47,13.24-56.92,26.51-85.36,39.81
	c-4.47,2.09-8.74,1.76-12.7-0.95C1611.59,346.57,1608.18,340.57,1607.78,332.96z"/>
<path d="M1390.8,454.51c-0.09-10.31,2.39-15.83,9.36-19.04c28.03-12.91,56.04-25.84,83.92-39.06c6.1-2.89,11.86-1.28,16.16,2.78
	c4.33,4.09,6.88,9.16,7.4,15.03c0.43,4.93-1.45,8.9-5.75,11.86c-13.82,9.52-27.51,19.22-41.25,28.84
	c-11.55,8.09-23.21,16.03-34.63,24.29c-6.14,4.44-12.15,4.53-18.44,0.8C1396.72,473.58,1391.42,463.84,1390.8,454.51z"/>
<path d="M1557.44,186.61c7.72-0.07,14.47,1.77,20.21,6.6c3.94,3.31,6.01,7.42,5.53,12.69c-1.23,13.5-2.38,27.01-3.59,40.51
	c-0.88,9.77-1.8,19.53-2.69,29.3c-0.69,7.64-1.28,15.29-2.06,22.91c-0.78,7.68-3.73,11.31-11.01,13.15
	c-5.29,1.34-10.65,1.24-15.72-1.14c-4.73-2.22-7.34-5.84-7.79-11.23c-1.98-23.46-4.14-46.91-6.21-70.36c-0.71-8-1.44-15.99-2.01-24
	c-0.47-6.51,3.29-10.76,8.33-13.93C1545.68,187.81,1551.57,186.45,1557.44,186.61z"/>
<path d="M1390.92,292.08c0.8-8.61,6.2-18.04,16.61-24.25c6.19-3.69,12.31-3.65,18.51,0.84c13.32,9.64,26.89,18.95,40.37,28.39
	c11.28,7.9,22.38,16.06,33.89,23.59c8.56,5.61,8.71,12.78,5.34,20.43c-1.45,3.31-3.54,6.22-6.39,8.5c-4.56,3.64-9.33,4.65-14.93,2
	c-20.68-9.77-41.44-19.34-62.18-28.99c-6.64-3.09-13.16-6.49-19.95-9.19C1392.91,309.7,1390.46,303.58,1390.92,292.08z"/>
<path d="M1557.62,561.31c-7.59-0.11-14.76-1.79-20.62-7.18c-3.79-3.48-5.32-7.65-4.77-12.94c1.43-13.84,2.48-27.71,3.71-41.57
	c1.3-14.56,2.65-29.12,3.96-43.69c0.18-1.96,0.28-3.92,0.39-5.88c0.44-7.89,3.83-12.29,11.42-14.01c5.49-1.24,11.02-1.1,16.17,1.64
	c4.02,2.14,6.53,5.21,6.91,10.05c1.31,16.35,2.78,32.69,4.26,49.03c1.21,13.32,2.04,26.7,3.89,39.93
	c2.07,14.8-5.78,20.6-16.74,23.63C1563.4,561.1,1560.58,561.19,1557.62,561.31z"/>
<path d="M1732.45,474.9c0.21-4.56,4.33-8.27,8.93-8.04c4.69,0.24,8.38,4.2,8.18,8.77c-0.19,4.5-4.42,8.32-8.94,8.08
	C1735.93,483.47,1732.24,479.5,1732.45,474.9z"/>
<path d="M171.88,265.22c3.85,0,7.6,0,11.34,0c10.73,0,21.47-0.02,32.2,0.01c4.43,0.01,4.46,0.04,5.26,4.08
	c3.25,16.47,6.54,32.93,9.7,49.42c5.28,27.53,10.51,55.08,15.67,82.64c1.74,9.3,3.21,18.65,4.81,27.98c0.2,1.18,0.15,2.46,1.65,3.94
	c0.8-4.43,1.46-8.32,2.2-12.21c6.14-32.3,13.89-64.24,21.28-96.27c4.14-17.92,8.36-35.83,12.54-53.74c0.04-0.17,0.05-0.36,0.11-0.53
	c1.82-5.86,0.22-5.3,6.52-5.32c12.7-0.04,25.4-0.02,38.1-0.01c4.92,0,4.98,0.01,5.95,4.58c9.67,45.59,20.01,91.05,28.37,136.92
	c1.5,8.25,2.68,16.56,4.01,24.84c1.23-0.04,1.33-0.94,1.46-1.81c3.2-22.47,8.03-44.64,12.48-66.87
	c6.14-30.64,12.68-61.2,19.04-91.79c0.04-0.18,0.08-0.35,0.11-0.52c1.15-5.33,1.15-5.34,6.42-5.34c11.81-0.01,23.61-0.01,35.42,0.01
	c1.59,0,3.22-0.26,4.79,0.34c0.91,1.41,0.15,2.75-0.2,4.09c-18.43,69.76-36.88,139.5-55.25,209.27c-0.78,2.96-2.13,4.46-5.25,4.91
	c-8.36,1.21-16.68,2.04-25.05,0.11c-9.86-2.27-17.04-7.92-21.64-16.89c-2.63-5.13-4.16-10.62-5.35-16.23
	c-7.18-33.89-15.28-67.59-21.6-101.67c-1.59-8.6-3.04-17.24-3.93-25.95c-0.12-1.17,0.2-2.54-1.39-3.65
	c-1.48,7.93-2.81,15.7-4.39,23.42c-5.86,28.53-13.5,56.63-20.32,84.93c-4.06,16.84-8.26,33.65-12.39,50.48
	c-1.16,4.71-1.14,4.76-5.83,5.44c-8.33,1.2-16.66,2.06-25.06,0.36c-9.41-1.9-16.13-7.23-20.77-15.48
	c-3.45-6.14-5.51-12.8-7.16-19.57c-14.59-59.86-29.14-119.73-43.7-179.59C171.74,268.34,171.19,267.17,171.88,265.22z"/>
<path d="M732.11,341.3c10.99-18.03,27.46-25.85,47.85-25.49c20.62,0.36,35.76,9.87,44.75,29.22c3.02-3.54,5.61-6.93,8.56-9.95
	c16.15-16.53,35.63-22.6,58.2-17.58c17.96,4,29.08,15.91,35.57,32.58c4.68,12.01,5.92,24.59,5.92,37.37
	c-0.02,30.21,0,60.42-0.01,90.63c0,4.81-0.05,4.84-5.03,4.85c-11.45,0.02-22.89,0.02-34.34,0c-4.92-0.01-4.96-0.04-4.96-4.93
	c-0.02-28.6-0.03-57.2-0.01-85.8c0-5.93-0.58-11.77-2.05-17.51c-0.53-2.07-1.24-4.09-2-6.09c-7.45-19.69-29.94-18.9-40.79-9.1
	c-7.92,7.15-10.57,16.34-10.63,26.52c-0.1,18.59-0.04,37.18-0.04,55.77c0,12.33,0.02,24.67-0.02,37c-0.01,4.06-0.08,4.13-4.11,4.14
	c-11.98,0.03-23.97,0.03-35.95,0c-4.18-0.01-4.24-0.08-4.24-4.56c-0.02-26.28,0.02-52.55-0.02-78.83c-0.01-7.32,0.33-14.65-1-21.92
	c-0.62-3.35-1.52-6.61-2.84-9.75c-7.48-17.85-27.57-18.36-38.45-9.41c-9.4,7.74-13.24,17.84-13.21,29.75
	c0.05,18.95,0.01,37.9,0.01,56.84c0,11.26,0.02,22.52-0.02,33.78c-0.01,4.01-0.09,4.08-4.17,4.09c-12.16,0.03-24.33-0.04-36.49,0.05
	c-2.64,0.02-4.12-0.6-3.71-3.55c0.12-0.88,0.02-1.78,0.02-2.68c0-50.41-0.01-100.82,0.01-151.23c0-6.58-0.79-5.91,6.09-5.94
	c10.02-0.03,20.03-0.04,30.05,0c6.68,0.03,5.82-0.71,5.89,6.12c0.05,4.95,0.01,9.9,0.01,14.85
	C731.35,340.8,731.73,341.05,732.11,341.3z"/>
<path d="M1316.53,447.78c0.89,2.63,0.48,5.32,0.55,7.97c0.18,7.5,0.18,15.01,0.46,22.51c0.09,2.51-0.42,4.01-3.1,4.66
	c-14.2,3.43-28.5,5.33-42.96,2.01c-16.65-3.82-27.3-14.08-31.73-30.66c-1.99-7.46-3.12-15.07-3.14-22.77
	c-0.12-45.94-0.12-91.88-0.16-137.82c-0.01-7.87-0.02-15.73,0.01-23.6c0.02-4.82,0.05-4.85,5.06-4.86c11.09-0.02,22.18-0.02,33.27,0
	c5.39,0.01,5.41,0.03,5.41,5.67c0.01,13.05-0.04,26.1,0.02,39.15c0.03,7.59-0.97,6.62,6.41,6.67c9.12,0.06,18.24-0.01,27.37,0.02
	c4.54,0.02,4.63,0.06,4.64,4.26c0.05,11.08,0.05,22.17,0,33.25c-0.02,4.12-0.11,4.19-4.13,4.21c-10.02,0.04-20.03-0.01-30.05,0.03
	c-4.14,0.01-4.23,0.07-4.24,4.04c-0.02,20.38,0.01,40.75,0.03,61.13c0,4.31,0.48,8.56,1.74,12.7c2.59,8.48,8.02,12.71,16.87,13.04
	c3.04,0.11,6.07,0.03,9.09-0.48C1310.75,448.42,1313.59,448.15,1316.53,447.78z"/>
<path d="M657.91,374.52c0,33.95,0,67.9,0,101.86c0,1.25-0.08,2.51,0.01,3.75c0.15,2.04-0.68,2.83-2.77,2.82
	c-12.87-0.06-25.75-0.06-38.62,0c-2.08,0.01-2.92-0.8-2.77-2.84c0.08-1.07,0.01-2.14,0.01-3.22c0-68.44-0.01-136.88,0.01-205.32
	c0-7.12-0.71-6.32,6.26-6.34c11.09-0.04,22.17-0.03,33.26,0c4.57,0.01,4.61,0.06,4.62,4.75
	C657.92,304.83,657.91,339.67,657.91,374.52z"/>
<path d="M1162.35,350.02c2.55-1.42,2.58-3.4,3.28-4.87c6.64-13.95,16.79-23.86,32.02-27.92c5.76-1.54,11.59-1.89,17.53-0.93
	c2.22,0.36,3.03,1.19,3.02,3.41c-0.07,12.16,0.01,24.32-0.04,36.48c-0.02,3.33-0.25,3.51-3.93,2.95
	c-6.07-0.92-12.09-1.04-18.13,0.21c-15.19,3.15-25.38,14.33-27.44,29.82c-0.59,4.45-0.79,8.89-0.79,13.36c0,23.96,0,47.92,0,71.88
	c0,1.07,0.01,2.15,0,3.22c-0.04,5.74,0.51,5.3-5.08,5.3c-11.81,0.02-23.62,0.01-35.42,0c-0.72,0-1.44-0.06-2.15,0
	c-2.07,0.19-2.95-0.73-2.8-2.79c0.08-1.07,0-2.14,0-3.22c0-50.42,0-100.84,0-151.27c0-1.07,0.07-2.15,0-3.22
	c-0.13-1.98,0.58-2.91,2.73-2.9c11.45,0.06,22.9,0.08,34.35-0.01c2.52-0.02,2.91,1.22,2.89,3.32c-0.07,7.15-0.02,14.3-0.02,21.46
	C1162.35,346.01,1162.35,347.7,1162.35,350.02z"/>
<path d="M586.44,479.58c-1.18-7.05-1.65-14.18-1.84-21.34c-0.58-22.88-0.07-45.75-0.32-68.63c-0.08-7.49-0.36-14.98-1.54-22.42
	c-4.29-27.08-21.45-44.83-48.37-49.63c-19.92-3.56-39.51-1.55-58.86,3.85c-6.38,1.78-12.51,4.24-18.49,7.11
	c-2.46,1.18-3.29,2.51-2.33,5.41c2.42,7.28,4.4,14.71,6.55,22.08c0.35,1.18,0.39,2.5,1.45,3.33c0.79,0.21,1.39-0.18,2-0.52
	c8.33-4.68,17.24-7.82,26.61-9.57c10.27-1.92,20.57-2.72,30.77,0.47c9.01,2.82,14.42,8.92,16.18,18.2c1.29,6.78,0.84,7.32-5.91,7.46
	c-1.61,0.03-3.22,0.06-4.83,0.13c-17.62,0.8-34.9,3.35-51.09,10.76c-18.98,8.69-31.48,22.58-34.02,44.02
	c-2.7,22.81,8.65,43.23,27.97,51.31c20.51,8.58,40.49,6.4,59.44-5.24c4.6-2.83,8.23-6.78,12.51-11.1c0.96,2.02,1.59,3.49,2.34,4.91
	c4.19,7.92,10.67,12.94,19.48,14.52c6.57,1.17,13.18,0.68,19.7-0.89C586.27,483.22,586.86,482.06,586.44,479.58z M507.33,454.13
	c-8.78-0.75-15.44-4.24-18.7-12.72c-4.02-10.44-0.28-21.99,8.98-28.37c4.63-3.19,9.84-5.04,15.25-6.29
	c7.68-1.77,15.49-2.52,23.37-2.39c3.63,0.06,3.66,0.07,3.72,3.97c0.05,3.21,0.01,6.43,0.01,9.64c0,0-0.01,0-0.01,0
	c0,1.96-0.1,3.93,0.02,5.89C541.11,443.49,522.49,455.42,507.33,454.13z"/>
<path d="M1094.83,479.11c-1.81-14.57-2.14-29.21-2.09-43.87c0.06-16.27,0-32.53,0.02-48.8c0.01-6.26-0.22-12.5-1.28-18.69
	c-4.81-28.27-20.92-44.63-47.39-50.02c-15.44-3.14-30.94-2.3-46.37,0.47c-11.13,2-21.85,5.32-32.04,10.29
	c-2.47,1.2-3.34,2.5-2.39,5.4c2.44,7.46,4.46,15.06,6.71,22.58c1.03,3.44,1.13,3.47,4.2,1.82c10.7-5.72,22.13-9.09,34.15-10.31
	c7.68-0.78,15.38-0.64,22.81,1.89c10.14,3.45,16.11,11.86,16.14,22.32c0.01,2.28-0.67,3.23-3.03,3.21
	c-3.75-0.04-7.51,0.03-11.26,0.26c-16.51,1.01-32.71,3.59-47.88,10.57c-18.12,8.34-30.73,21.33-33.79,41.82
	c-4.16,27.84,11.5,50.26,35.58,56.47c15.57,4.01,30.83,2.49,45.41-4.59c7.01-3.4,12.85-8.32,18.52-14.81
	c0.74,1.52,1.12,2.28,1.49,3.05c0.39,0.8,0.73,1.63,1.16,2.41c4.62,8.46,11.78,13.29,21.3,14.39c5.52,0.64,11.06,0.43,16.51-0.97
	C1095.21,483.02,1095.32,483.08,1094.83,479.11z M1020.11,454.05c-1.96,0.1-3.93,0.09-5.88-0.09c-10.71-1-17.9-8.73-18.37-19.47
	c-0.47-10.79,4.13-18.55,13.7-23.41c9.62-4.89,20.01-6.29,30.61-6.64c8.48-0.28,8.48-0.24,8.48,8.23c0,1.61,0,3.21,0,4.82
	c-0.01,0-0.01,0-0.02,0c0,2.32-0.08,4.65,0.01,6.96C1049.32,441.25,1034.73,453.33,1020.11,454.05z"/>
<path class="st0" d="M1741.22,481.64c-3.15,0.11-6.29-2.84-6.38-5.98c-0.09-3.56,2.86-6.73,6.23-6.69c2.98,0.04,5.87,2.73,6.1,5.69
	C1747.44,478.08,1744.5,481.53,1741.22,481.64z"/>
<text transform="matrix(1 0 0 1 1737.7916 478.826)" class="st1 st2">R</text>
</svg>
